<svg xmlns="http://www.w3.org/2000/svg" xmlns:xlink="http://www.w3.org/1999/xlink" width="82.225" height="62.667" viewBox="0 0 82.225 62.667">
  <defs>
    <linearGradient id="linear-gradient" x1="1.114" y1="-0.332" x2="0.126" y2="1.158" gradientUnits="objectBoundingBox">
      <stop offset="0" stop-color="#ec1b25"/>
      <stop offset="1" stop-color="#ea1979"/>
    </linearGradient>
    <linearGradient id="linear-gradient-2" x1="0.999" y1="-0.244" x2="0.036" y2="1.101" xlink:href="#linear-gradient"/>
  </defs>
  <g id="logo" transform="translate(-1.976 -2.9)">
    <path id="XMLID_358_" d="M82.648,31.864,74.662,45.319a18.384,18.384,0,0,1-15.9,8.993H48.9a6.1,6.1,0,0,0-5.324,3.022l-3.741,6.331a4.894,4.894,0,0,1-4.173,2.374H16.528c-2.59,0-5.828-1.943-5.828-1.943.791,7.411,9.641,8.2,9.641,8.2h16.62a7.283,7.283,0,0,0,6.4-3.669l3.382-5.684a6.28,6.28,0,0,1,5.324-3.022h7.986A21.65,21.65,0,0,0,78.763,49.276L85.6,37.764a7.261,7.261,0,0,0,.5-1.079c1.871-6.259-1.655-9.785-1.655-9.785A18.848,18.848,0,0,1,82.648,31.864Z" transform="translate(-2.447 -6.732)" fill="url(#linear-gradient)"/>
    <path id="XMLID_329_" d="M70.272,2.9H37.248A21.834,21.834,0,0,0,18.469,13.62L3.288,39.162a9.293,9.293,0,0,0,7.986,14.03H30.2A5.286,5.286,0,0,0,34.73,50.6l3.741-6.331A6.73,6.73,0,0,1,44.3,40.96h10a17.961,17.961,0,0,0,15.469-8.778l8.778-14.821A9.574,9.574,0,0,0,70.272,2.9Z" transform="translate(0)" fill="url(#linear-gradient-2)"/>
    <path id="XMLID_198_" d="M77.155,26.9,56.362,34.242a1.615,1.615,0,0,1-1.943-2.3L62.766,17.19A1.627,1.627,0,0,1,65,16.615l12.447,7.411A1.619,1.619,0,0,1,77.155,26.9Z" transform="translate(-14.654 -3.786)" fill="#fff"/>
  </g>
</svg>
